<?xml version="1.0" encoding="UTF-8" standalone="no"?>
<svg
   viewBox="0 0 16 16"
   version="1.1"
   id="svg2609"
   width="16"
   height="16"
   xmlns="http://www.w3.org/2000/svg"
   xmlns:svg="http://www.w3.org/2000/svg">
  <defs
     id="defs2613" />
  <!--! Font Awesome Pro 6.4.2 by @fontawesome - https://fontawesome.com License - https://fontawesome.com/license (Commercial License) Copyright 2023 Fonticons, Inc. -->
  <path
     d="M 2.2857143,0 C 1.025,0 0,1.025 0,2.285714 V 13.714286 C 0,14.975 1.025,16 2.2857143,16 H 13.714286 C 14.975,16 16,14.975 16,13.714286 V 2.285714 C 16,1.025 14.975,0 13.714286,0 Z M 11.635714,3.846429 12.15,4.360714 c 0.557143,0.557143 0.557143,1.460715 0,2.021429 L 11.385714,7.146429 8.85,4.610714 9.6142857,3.846429 c 0.5571433,-0.557143 1.4607143,-0.557143 2.0214283,0 z M 4.2821429,9.178571 8.0392857,5.421429 10.575,7.957143 6.8178571,11.710714 c -0.1464285,0.146429 -0.3285714,0.25 -0.5321428,0.3 l -2.1464286,0.535715 c -0.1964286,0.05 -0.4,-0.0071 -0.5428571,-0.15 -0.1428572,-0.142858 -0.2,-0.346429 -0.15,-0.542858 L 3.9821429,9.707143 c 0.05,-0.2 0.1535714,-0.385714 0.3,-0.532143 z"
     id="path2607"
     style="stroke-width:0.0357143" />
  <path
     style="fill:#ff2a2a;stroke:#800000;stroke-width:0.0091638"
     d="m 2.1168385,15.989467 c -0.01512,-0.0018 -0.066667,-0.0076 -0.1145475,-0.01308 C 1.5347736,15.923338 1.0659197,15.699122 0.71294307,15.35979 0.507,15.161808 0.36277681,14.964093 0.23808111,14.708802 0.10802501,14.442536 0.04370563,14.215114 0.0140183,13.916554 8.7562245e-4,13.784381 8.7562245e-4,2.2156183 0.0140183,2.0834451 0.06969378,1.5235286 0.3040509,1.0354874 0.7022037,0.65032101 1.0839574,0.2810189 1.5484535,0.06702786 2.0834451,0.01399006 2.2157518,8.7349554e-4 13.784638,9.0111331e-4 13.916554,0.0140183 c 0.560191,0.05570264 1.04777,0.28983836 1.433125,0.6881854 0.372265,0.3848164 0.586491,0.8530659 0.63672,1.3917253 0.0069,0.074133 0.0089,1.8472567 0.0066,5.9793814 -0.003,5.4488856 -0.0043,5.8802976 -0.01857,5.9610536 -0.05095,0.288473 -0.108496,0.46981 -0.219553,0.691867 -0.10719,0.214323 -0.231122,0.390229 -0.395124,0.560826 -0.199159,0.207167 -0.394394,0.349536 -0.651632,0.475179 -0.263362,0.128633 -0.494234,0.193868 -0.791604,0.223671 -0.06465,0.0065 -1.956205,0.0091 -5.9335615,0.0081 -3.2112645,-7.55e-4 -5.8510337,-0.0028 -5.866154,-0.0046 z M 5.227206,12.280206 c 0.6170022,-0.154555 1.1576883,-0.29448 1.2015247,-0.310946 0.093746,-0.03521 0.1929394,-0.09034 0.2751452,-0.152918 0.032456,-0.02471 0.9188045,-0.902446 1.9696636,-1.950534 L 10.584192,7.960195 9.3150149,6.6902891 C 8.6169674,5.9918409 8.0427904,5.4214156 8.0390661,5.4226773 8.0353416,5.4239391 7.1681661,6.2888889 6.1120093,7.3447881 4.0986692,9.3576376 4.14341,9.3112404 4.0663024,9.4662085 c -0.015047,0.030241 -0.038361,0.085622 -0.05181,0.1230699 -0.039665,0.1104467 -0.582296,2.2938236 -0.5885926,2.3683106 -0.015038,0.177903 0.077947,0.383926 0.2207738,0.489157 0.1224036,0.09018 0.2258641,0.123442 0.367072,0.118001 0.083695,-0.0032 0.188871,-0.02789 1.2134604,-0.284541 z m 6.572457,-5.5379379 c 0.224725,-0.2255441 0.433425,-0.4417132 0.463778,-0.4803757 0.203012,-0.2585882 0.304715,-0.5562717 0.304715,-0.8919038 0,-0.2996639 -0.07555,-0.5514103 -0.239852,-0.799192 C 12.271138,4.4845833 12.218688,4.4275937 11.918318,4.1253269 11.496096,3.7004402 11.402819,3.6262626 11.175258,3.5344214 10.720227,3.3507759 10.231255,3.3988394 9.8239927,3.667244 9.7436408,3.7201997 9.6755446,3.7841173 9.2875143,4.170803 L 8.8430699,4.6137073 10.112244,5.8830278 c 0.698046,0.6981262 1.271347,1.2693204 1.274002,1.2693204 0.0027,0 0.188693,-0.184536 0.413417,-0.4100801 z"
     id="path2727" />
</svg>
